# xmcd
#
# Track frame offsets:
#	150
#	4768
#	27810
#	69313
#	100515
#	120190
#	138113
#	158468
#	185030
#	204130
#	231495
#	257815
#	277603
#
# Disc length: 4045 seconds
# Revision: 0
# Processed by: cddbd v1.5.2PL0 Copyright (c) Steve Scherf et al.
# Submitted via: dBpowerAMP V12.0
#
DISCID=950fcb0d
DTITLE=Kevin Douglass - Nasheed
DYEAR=1993
DGENRE=Saint Louis Jazz
TTITLE0=Al Fatiha
TTITLE1=Nasheed
TTITLE2=Fajr
TTITLE3=Rise Man(The Low and Middle Class Conspiracy)
TTITLE4=High Intrigue
TTITLE5=I'ts A Beatuiful day
TTITLE6=Funkin Right
TTITLE7=In Cadence (Flying High)
TTITLE8=Swang Set
TTITLE9=R.O.H.C
TTITLE10=Mother
TTITLE11=Rain 
TTITLE12=Soul Searching
EXTD=
EXTT0=
EXTT1=
EXTT2=
EXTT3=
EXTT4=
EXTT5=
EXTT6=
EXTT7=
EXTT8=
EXTT9=
EXTT10=
EXTT11=
EXTT12=
PLAYORDER=
